<?xml version="1.0" encoding="utf-8"?>
<!-- Generator: Adobe Illustrator 25.0.0, SVG Export Plug-In . SVG Version: 6.00 Build 0)  -->
<svg version="1.1" id="Layer_1" xmlns="http://www.w3.org/2000/svg" xmlns:xlink="http://www.w3.org/1999/xlink" x="0px" y="0px"
	 viewBox="0 0 248.9 33.6" style="enable-background:new 0 0 248.9 33.6;" xml:space="preserve">
<style type="text/css">
	.st0{fill:#2D2E82;}
	.st1{fill:#009EE2;}
	.st2{fill:#FFDA00;}
</style>
<g>
	<path class="st0" d="M20.8,0.8C22,1.3,23,2,23.9,2.8c0.9,0.9,1.6,1.9,2.1,3.1c0.5,1.2,0.8,2.4,0.8,3.8c0,1.3-0.3,2.6-0.8,3.8
		c-0.5,1.2-1.2,2.2-2.1,3.1c-0.9,0.9-1.9,1.6-3.1,2.1c-1.2,0.5-2.4,0.8-3.8,0.8H6.4l2.9-5.8H17c0.6,0,1.1-0.1,1.5-0.3
		c0.5-0.2,0.9-0.5,1.2-0.8c0.4-0.4,0.6-0.8,0.8-1.2c0.2-0.5,0.3-1,0.3-1.5c0-0.5-0.1-1-0.3-1.5c-0.2-0.5-0.5-0.9-0.8-1.2
		c-0.4-0.4-0.8-0.6-1.2-0.8c-0.5-0.2-1-0.3-1.5-0.3H5.8v1.7v6.1v5.8v13.6H0V16.5V0h17C18.4,0,19.6,0.3,20.8,0.8z"/>
	<path class="st0" d="M33.7,0v6.9v2.6v23.6h-5.8V9.5V6.9V0H33.7z"/>
	<path class="st0" d="M62.5,6.9v26.2h-5.8v-2V20c0-1.1-0.2-2.1-0.6-3c-0.4-0.9-1-1.8-1.7-2.5c-0.7-0.7-1.5-1.3-2.5-1.7
		c-0.9-0.4-1.9-0.6-3-0.6c-1.1,0-2.1,0.2-3,0.6c-0.9,0.4-1.8,1-2.5,1.7c-0.7,0.7-1.3,1.5-1.7,2.5c-0.4,0.9-0.6,1.9-0.6,3
		c0,1.1,0.2,2.1,0.6,3c0.4,0.9,1,1.8,1.7,2.5c0.7,0.7,1.5,1.3,2.5,1.7c0.9,0.4,1.9,0.6,3,0.6c0.8,0,1.6-0.1,2.4-0.4
		c0.7-0.2,1.4-0.6,2.1-1l2.6,5.2c-1,0.6-2.1,1.1-3.3,1.5c-1.2,0.3-2.4,0.5-3.7,0.5c-1.9,0-3.6-0.4-5.3-1.1c-1.7-0.7-3.1-1.7-4.3-2.9
		c-1.2-1.2-2.2-2.7-2.9-4.3c-0.7-1.7-1.1-3.4-1.1-5.3c0-1.9,0.4-3.6,1.1-5.3c0.7-1.6,1.7-3.1,2.9-4.3c1.2-1.2,2.7-2.2,4.3-2.9
		c1.7-0.7,3.4-1.1,5.3-1.1c1.5,0,2.8,0.2,4.2,0.7c1.3,0.4,2.5,1,3.6,1.8v-2H62.5z"/>
	<path class="st0" d="M79,6.4c1.7,0,3.3,0.3,4.9,1c1.5,0.7,2.9,1.6,4,2.7c1.1,1.1,2,2.5,2.7,4c0.7,1.5,1,3.2,1,4.9v14.2h-5.8v-9.7
		v-4.2c0-1.1-0.2-2.1-0.6-3c-0.4-0.9-1-1.8-1.7-2.4c-0.7-0.7-1.5-1.2-2.4-1.7c-0.9-0.4-1.9-0.6-3-0.6c-1.1,0-2.1,0.2-3,0.6
		c-0.9,0.4-1.8,1-2.5,1.7c-0.7,0.7-1.2,1.5-1.7,2.4c-0.4,0.9-0.6,1.9-0.6,3v4.2v9.7h-5.8V6.9h5.8l0,3c1.1-1.1,2.5-2,4-2.6
		C75.7,6.7,77.3,6.4,79,6.4z"/>
	<path class="st0" d="M131.1,33.1h-5.8V13.6V0h23h0.1v5.8h-0.1h-17.2v7.8h14.5h0.1v5.8h-0.1h-14.5v1.4v6.5V33.1z"/>
	<path class="st0" d="M160.5,33.6c-1.9,0-3.6-0.4-5.3-1.1c-1.7-0.7-3.1-1.7-4.3-2.9c-1.2-1.2-2.2-2.7-2.9-4.3
		c-0.7-1.7-1.1-3.4-1.1-5.3c0-1.9,0.4-3.6,1.1-5.3c0.7-1.6,1.7-3.1,2.9-4.3c1.2-1.2,2.7-2.2,4.3-2.9c1.7-0.7,3.4-1.1,5.3-1.1
		s3.6,0.4,5.3,1.1c1.7,0.7,3.1,1.7,4.3,2.9c1.2,1.2,2.2,2.7,2.9,4.3c0.7,1.6,1.1,3.4,1.1,5.3c0,1.9-0.4,3.6-1.1,5.3
		c-0.7,1.7-1.7,3.1-2.9,4.3c-1.2,1.2-2.7,2.2-4.3,2.9C164.1,33.2,162.4,33.6,160.5,33.6z M160.5,12.2c-1.1,0-2.1,0.2-3,0.6
		s-1.8,1-2.5,1.7c-0.7,0.7-1.3,1.5-1.7,2.5c-0.4,0.9-0.6,1.9-0.6,3c0,1.1,0.2,2.1,0.6,3c0.4,0.9,1,1.8,1.7,2.5
		c0.7,0.7,1.5,1.3,2.5,1.7s1.9,0.6,3,0.6s2.1-0.2,3-0.6c0.9-0.4,1.8-1,2.5-1.7c0.7-0.7,1.3-1.5,1.7-2.5c0.4-0.9,0.6-2,0.6-3
		c0-1.1-0.2-2.1-0.6-3c-0.4-0.9-1-1.8-1.7-2.5c-0.7-0.7-1.5-1.3-2.5-1.7C162.6,12.4,161.6,12.2,160.5,12.2z"/>
	<path class="st0" d="M198.4,29.6c-1.3,1.2-2.7,2.2-4.3,2.9c-1.6,0.7-3.4,1.1-5.3,1.1c-1.9,0-3.6-0.4-5.3-1.1
		c-1.6-0.7-3.1-1.7-4.3-2.9c-1.2-1.2-2.2-2.7-2.9-4.3c-0.7-1.7-1.1-3.4-1.1-5.3c0-1.9,0.4-3.6,1.1-5.3c0.7-1.6,1.7-3.1,2.9-4.3
		c1.2-1.2,2.7-2.2,4.3-2.9c1.6-0.7,3.4-1.1,5.3-1.1c1.9,0,3.7,0.4,5.3,1.1c1.6,0.7,3.1,1.7,4.3,2.9l-4.1,4.1
		c-0.7-0.7-1.5-1.3-2.5-1.7c-0.9-0.4-2-0.6-3-0.6s-2.1,0.2-3,0.6c-0.9,0.4-1.8,1-2.5,1.7c-0.7,0.7-1.3,1.5-1.7,2.5
		c-0.4,0.9-0.6,1.9-0.6,3c0,1.1,0.2,2.1,0.6,3c0.4,0.9,1,1.8,1.7,2.5c0.7,0.7,1.5,1.3,2.5,1.7c0.9,0.4,1.9,0.6,3,0.6s2.1-0.2,3-0.6
		c0.9-0.4,1.8-1,2.5-1.7L198.4,29.6z"/>
	<path class="st0" d="M212.2,33.5c-1.7,0-3.4-0.3-4.9-1c-1.5-0.7-2.9-1.6-4-2.7c-1.1-1.1-2-2.5-2.7-4c-0.7-1.5-1-3.2-1-4.9V6.9h5.8
		v9.5v4.2c0,1.1,0.2,2.1,0.6,3c0.4,0.9,1,1.8,1.7,2.5c0.7,0.7,1.5,1.2,2.5,1.7c0.9,0.4,1.9,0.6,3,0.6c1.1,0,2.1-0.2,3-0.6
		c0.9-0.4,1.8-1,2.5-1.7c0.7-0.7,1.2-1.5,1.7-2.5c0.4-0.9,0.6-2,0.6-3v-4.2V6.9h5.8v26.3H221V30c-1.1,1.1-2.5,2-4,2.6
		C215.5,33.2,213.9,33.5,212.2,33.5z"/>
	<path class="st0" d="M238.9,33.5c-0.8,0-1.6-0.1-2.4-0.2c-0.9-0.2-1.7-0.5-2.6-0.9c-0.9-0.4-1.8-1-2.7-1.7
		c-0.9-0.7-1.8-1.6-2.7-2.6l4-4.1l2.1,2.1c1,0.9,2.1,1.4,3.1,1.7c1,0.2,2,0.2,2.8,0.1c0.8-0.2,1.5-0.5,2-0.9
		c0.5-0.4,0.8-0.9,0.8-1.3c0-0.3,0-0.6-0.1-0.9c-0.1-0.3-0.3-0.5-0.7-0.7c-0.4-0.2-0.9-0.4-1.5-0.6c-0.7-0.2-1.6-0.4-2.7-0.6
		c-0.6-0.1-1.3-0.2-2-0.4c-0.7-0.1-1.4-0.3-2.2-0.6c-0.7-0.3-1.4-0.6-2.1-1c-0.7-0.4-1.3-0.9-1.8-1.5c-0.5-0.6-0.9-1.3-1.3-2.1
		c-0.3-0.8-0.5-1.8-0.5-2.9c0-1.4,0.4-2.7,1.3-3.8c0.8-1.1,2-2.1,3.4-2.8c0.9-0.5,2-0.9,3.2-1.1c1.2-0.2,2.6-0.2,4,0.1
		c1.4,0.3,2.8,0.8,4.3,1.6c1.5,0.8,2.9,1.9,4.4,3.4l-3.8,4.3l-2.2-1.9c-1.1-0.9-2.1-1.4-3.2-1.7c-1-0.2-2-0.3-2.8-0.1
		c-0.8,0.1-1.5,0.4-2,0.8c-0.5,0.4-0.8,0.8-0.8,1.3c0,0.4,0,0.7,0.1,1c0.1,0.3,0.3,0.5,0.7,0.7c0.3,0.2,0.8,0.4,1.5,0.6
		c0.7,0.2,1.6,0.3,2.7,0.5c0.9,0.2,2,0.4,3.1,0.7c1.1,0.3,2.2,0.7,3.2,1.3c1,0.6,1.8,1.4,2.5,2.5c0.7,1,1,2.4,1,4.1
		c0,1.5-0.5,2.9-1.4,4.2c-0.9,1.2-2.2,2.2-3.8,2.9C242.3,33.2,240.7,33.5,238.9,33.5z"/>
	<path class="st1" d="M119.6,19.5v3.9c0,0.5,0.1,1,0.3,1.5c0.2,0.5,0.5,0.9,0.8,1.2c0.4,0.4,0.8,0.6,1.2,0.8c0.5,0.2,1,0.3,1.5,0.3
		v5.8c-1.3,0-2.6-0.2-3.7-0.7c-1.2-0.5-2.2-1.2-3.1-2c-0.9,0.9-1.9,1.5-3.1,2c-1.2,0.5-2.4,0.7-3.7,0.7h-7.3c-1.3,0-2.6-0.3-3.8-0.8
		c-1.2-0.5-2.2-1.2-3.1-2.1c-0.9-0.9-1.6-1.9-2.1-3.1c-0.5-1.2-0.8-2.4-0.8-3.8c0-1.3,0.2-2.6,0.7-3.7c0.5-1.2,1.2-2.2,2.1-3.1
		c-0.9-0.9-1.6-1.9-2.1-3.1c-0.5-1.2-0.7-2.4-0.7-3.7c0-1.3,0.3-2.6,0.8-3.8c0.5-1.2,1.2-2.2,2.1-3.1c0.9-0.9,1.9-1.6,3.1-2.1
		c1.2-0.5,2.4-0.8,3.8-0.8h7.3c1.3,0,2.6,0.3,3.8,0.8c1.2,0.5,2.2,1.2,3.1,2.1c0.9,0.9,1.6,1.9,2.1,3.1c0.5,1.2,0.8,2.4,0.8,3.8
		h-5.8c0-0.5-0.1-1-0.3-1.5c-0.2-0.5-0.5-0.9-0.8-1.2c-0.4-0.4-0.8-0.6-1.2-0.8c-0.5-0.2-1-0.3-1.5-0.3h-7.3c-0.5,0-1,0.1-1.5,0.3
		c-0.5,0.2-0.9,0.5-1.2,0.8c-0.4,0.4-0.6,0.8-0.8,1.2c-0.2,0.5-0.3,1-0.3,1.5c0,0.5,0.1,1,0.3,1.5c0.2,0.5,0.5,0.9,0.8,1.2
		c0.4,0.4,0.8,0.6,1.2,0.8c0.5,0.2,1,0.3,1.5,0.3h11.2h2.9h2.9h26.2v5.8H119.6z M109.9,27.3c0.5,0,1-0.1,1.5-0.3
		c0.5-0.2,0.9-0.5,1.2-0.8c0.4-0.4,0.6-0.8,0.8-1.2c0.2-0.5,0.3-1,0.3-1.5v-3.9h-11.2c-0.5,0-1,0.1-1.5,0.3
		c-0.5,0.2-0.9,0.5-1.2,0.8c-0.4,0.4-0.6,0.8-0.8,1.2c-0.2,0.5-0.3,1-0.3,1.5c0,0.5,0.1,1,0.3,1.5c0.2,0.5,0.5,0.9,0.8,1.2
		c0.4,0.4,0.8,0.6,1.2,0.8c0.5,0.2,1,0.3,1.5,0.3H109.9z"/>
	<rect x="140" y="13.6" class="st2" width="5.8" height="5.8"/>
</g>
</svg>
